# xmcd
#
# Track frame offsets: 
#        150
#        15331
#        31924
#        50315
#        66276
#        83532
#        97489
#        112833
#        134214
#        153339
#        167970
#
# Disc length: 2384 seconds
#
# Revision: 12
# Processed by: cddbd v1.5.2PL0 Copyright (c) Steve Scherf et al.
# Submitted via: ExactAudioCopyFreeDBPlugin 1.0
#
DISCID=8b094e0b
DTITLE=Юра Шатунов - Вспомни май
DYEAR=1900
DGENRE=Blues
TTITLE0=Забудь
TTITLE1=Лето
TTITLE2=Oaie aiaaiee
TTITLE3=Iaieoe
TTITLE4=Ainoaa?noai aanoai
TTITLE5=Я теряю 
TTITLE6=Вспомни 
TTITLE7=Я не люблю этот парк 
TTITLE8=Я перессорился с дождем 
TTITLE9=Вечер вдвоем 
TTITLE10=Eenoiiaa
EXTD=
EXTT0=
EXTT1=
EXTT2=
EXTT3=
EXTT4=
EXTT5=
EXTT6=
EXTT7=
EXTT8=
EXTT9=
EXTT10=
PLAYORDER=
